<?xml version="1.0" encoding="UTF-8" standalone="no"?><svg xmlns="http://www.w3.org/2000/svg" xmlns:xlink="http://www.w3.org/1999/xlink" contentStyleType="text/css" height="397px" preserveAspectRatio="none" style="width:651px;height:397px;background:#FFFFFF;" version="1.1" viewBox="0 0 651 397" width="651px" zoomAndPan="magnify"><defs/><g><line style="stroke:#181818;stroke-width:0.5;stroke-dasharray:5.0,5.0;" x1="45" x2="45" y1="82.6094" y2="315.0703"/><line style="stroke:#181818;stroke-width:0.5;stroke-dasharray:5.0,5.0;" x1="116" x2="116" y1="82.6094" y2="315.0703"/><line style="stroke:#181818;stroke-width:0.5;stroke-dasharray:5.0,5.0;" x1="179" x2="179" y1="82.6094" y2="315.0703"/><line style="stroke:#181818;stroke-width:0.5;stroke-dasharray:5.0,5.0;" x1="249" x2="249" y1="82.6094" y2="315.0703"/><line style="stroke:#181818;stroke-width:0.5;stroke-dasharray:5.0,5.0;" x1="305" x2="305" y1="82.6094" y2="315.0703"/><line style="stroke:#181818;stroke-width:0.5;stroke-dasharray:5.0,5.0;" x1="369" x2="369" y1="82.6094" y2="315.0703"/><line style="stroke:#181818;stroke-width:0.5;stroke-dasharray:5.0,5.0;" x1="456" x2="456" y1="82.6094" y2="315.0703"/><line style="stroke:#181818;stroke-width:0.5;stroke-dasharray:5.0,5.0;" x1="541" x2="541" y1="82.6094" y2="315.0703"/><line style="stroke:#181818;stroke-width:0.5;stroke-dasharray:5.0,5.0;" x1="616" x2="616" y1="82.6094" y2="315.0703"/><rect fill="#E2E2F0" height="31.6094" rx="2.5" ry="2.5" style="stroke:#181818;stroke-width:0.5;" width="81" x="5" y="50"/><text fill="#000000" font-family="sans-serif" font-size="14" lengthAdjust="spacing" textLength="67" x="12" y="71.5332">Participant</text><rect fill="#E2E2F0" height="31.6094" rx="2.5" ry="2.5" style="stroke:#181818;stroke-width:0.5;" width="81" x="5" y="314.0703"/><text fill="#000000" font-family="sans-serif" font-size="14" lengthAdjust="spacing" textLength="67" x="12" y="335.6035">Participant</text><text fill="#000000" font-family="sans-serif" font-size="14" lengthAdjust="spacing" textLength="33" x="97" y="79.5332">Actor</text><ellipse cx="116.5" cy="13.5" fill="#E2E2F0" rx="8" ry="8" style="stroke:#181818;stroke-width:0.5;"/><path d="M116.5,21.5 L116.5,48.5 M103.5,29.5 L129.5,29.5 M116.5,48.5 L103.5,63.5 M116.5,48.5 L129.5,63.5 " fill="none" style="stroke:#181818;stroke-width:0.5;"/><text fill="#000000" font-family="sans-serif" font-size="14" lengthAdjust="spacing" textLength="33" x="97" y="328.6035">Actor</text><ellipse cx="116.5" cy="340.1797" fill="#E2E2F0" rx="8" ry="8" style="stroke:#181818;stroke-width:0.5;"/><path d="M116.5,348.1797 L116.5,375.1797 M103.5,356.1797 L129.5,356.1797 M116.5,375.1797 L103.5,390.1797 M116.5,375.1797 L129.5,390.1797 " fill="none" style="stroke:#181818;stroke-width:0.5;"/><text fill="#000000" font-family="sans-serif" font-size="14" lengthAdjust="spacing" textLength="61" x="146" y="79.5332">Boundary</text><path d="M159,37 L159,61 M159,49 L176,49 " fill="none" style="stroke:#181818;stroke-width:0.5;"/><ellipse cx="188" cy="49" fill="#E2E2F0" rx="12" ry="12" style="stroke:#181818;stroke-width:0.5;"/><text fill="#000000" font-family="sans-serif" font-size="14" lengthAdjust="spacing" textLength="61" x="146" y="328.6035">Boundary</text><path d="M159,335.6797 L159,359.6797 M159,347.6797 L176,347.6797 " fill="none" style="stroke:#181818;stroke-width:0.5;"/><ellipse cx="188" cy="347.6797" fill="#E2E2F0" rx="12" ry="12" style="stroke:#181818;stroke-width:0.5;"/><text fill="#000000" font-family="sans-serif" font-size="14" lengthAdjust="spacing" textLength="46" x="223" y="79.5332">Control</text><ellipse cx="249" cy="49" fill="#E2E2F0" rx="12" ry="12" style="stroke:#181818;stroke-width:0.5;"/><polygon fill="#181818" points="245,37,251,32,249,37,251,42,245,37" style="stroke:#181818;stroke-width:1.0;"/><text fill="#000000" font-family="sans-serif" font-size="14" lengthAdjust="spacing" textLength="46" x="223" y="328.6035">Control</text><ellipse cx="249" cy="347.6797" fill="#E2E2F0" rx="12" ry="12" style="stroke:#181818;stroke-width:0.5;"/><polygon fill="#181818" points="245,335.6797,251,330.6797,249,335.6797,251,340.6797,245,335.6797" style="stroke:#181818;stroke-width:1.0;"/><text fill="#000000" font-family="sans-serif" font-size="14" lengthAdjust="spacing" textLength="35" x="285" y="79.5332">Entity</text><ellipse cx="305.5" cy="49" fill="#E2E2F0" rx="12" ry="12" style="stroke:#181818;stroke-width:0.5;"/><line style="stroke:#181818;stroke-width:0.5;" x1="293.5" x2="317.5" y1="63" y2="63"/><text fill="#000000" font-family="sans-serif" font-size="14" lengthAdjust="spacing" textLength="35" x="285" y="328.6035">Entity</text><ellipse cx="305.5" cy="347.6797" fill="#E2E2F0" rx="12" ry="12" style="stroke:#181818;stroke-width:0.5;"/><line style="stroke:#181818;stroke-width:0.5;" x1="293.5" x2="317.5" y1="361.6797" y2="361.6797"/><text fill="#000000" font-family="sans-serif" font-size="14" lengthAdjust="spacing" textLength="61" x="336" y="79.5332">Database</text><path d="M351.5,29 C351.5,19 369.5,19 369.5,19 C369.5,19 387.5,19 387.5,29 L387.5,55 C387.5,65 369.5,65 369.5,65 C369.5,65 351.5,65 351.5,55 L351.5,29 " fill="#E2E2F0" style="stroke:#181818;stroke-width:1.5;"/><path d="M351.5,29 C351.5,39 369.5,39 369.5,39 C369.5,39 387.5,39 387.5,29 " fill="none" style="stroke:#181818;stroke-width:1.5;"/><text fill="#000000" font-family="sans-serif" font-size="14" lengthAdjust="spacing" textLength="61" x="336" y="328.6035">Database</text><path d="M351.5,341.6797 C351.5,331.6797 369.5,331.6797 369.5,331.6797 C369.5,331.6797 387.5,331.6797 387.5,341.6797 L387.5,367.6797 C387.5,377.6797 369.5,377.6797 369.5,377.6797 C369.5,377.6797 351.5,377.6797 351.5,367.6797 L351.5,341.6797 " fill="#E2E2F0" style="stroke:#181818;stroke-width:1.5;"/><path d="M351.5,341.6797 C351.5,351.6797 369.5,351.6797 369.5,351.6797 C369.5,351.6797 387.5,351.6797 387.5,341.6797 " fill="none" style="stroke:#181818;stroke-width:1.5;"/><rect fill="#E2E2F0" height="31.6094" style="stroke:#181818;stroke-width:0.5;" width="83" x="417" y="46"/><rect fill="#E2E2F0" height="31.6094" style="stroke:#181818;stroke-width:0.5;" width="83" x="413" y="50"/><text fill="#000000" font-family="sans-serif" font-size="14" lengthAdjust="spacing" textLength="69" x="420" y="71.5332">Collections</text><rect fill="#E2E2F0" height="31.6094" style="stroke:#181818;stroke-width:0.5;" width="83" x="417" y="314.0703"/><rect fill="#E2E2F0" height="31.6094" style="stroke:#181818;stroke-width:0.5;" width="83" x="413" y="318.0703"/><text fill="#000000" font-family="sans-serif" font-size="14" lengthAdjust="spacing" textLength="69" x="420" y="339.6035">Collections</text><path d="M515,55 L568,55 C573,55 573,68.8047 573,68.8047 C573,68.8047 573,82.6094 568,82.6094 L515,82.6094 C510,82.6094 510,68.8047 510,68.8047 C510,68.8047 510,55 515,55 " fill="#E2E2F0" style="stroke:#181818;stroke-width:0.5;"/><path d="M568,55 C563,55 563,68.8047 563,68.8047 C563,82.6094 568,82.6094 568,82.6094 " fill="none" style="stroke:#181818;stroke-width:0.5;"/><text fill="#000000" font-family="sans-serif" font-size="14" lengthAdjust="spacing" textLength="43" x="515" y="74.5332">Queue</text><path d="M515,314.0703 L568,314.0703 C573,314.0703 573,327.875 573,327.875 C573,327.875 573,341.6797 568,341.6797 L515,341.6797 C510,341.6797 510,327.875 510,327.875 C510,327.875 510,314.0703 515,314.0703 " fill="#E2E2F0" style="stroke:#181818;stroke-width:0.5;"/><path d="M568,314.0703 C563,314.0703 563,327.875 563,327.875 C563,341.6797 568,341.6797 568,341.6797 " fill="none" style="stroke:#181818;stroke-width:0.5;"/><text fill="#000000" font-family="sans-serif" font-size="14" lengthAdjust="spacing" textLength="43" x="515" y="333.6035">Queue</text><text fill="#000000" font-family="sans-serif" font-size="14" lengthAdjust="spacing" textLength="61" x="583" y="79.5332">Customer</text><ellipse cx="616.5" cy="13.5" fill="#E2E2F0" rx="8" ry="8" style="stroke:#181818;stroke-width:0.5;"/><path d="M616.5,21.5 L616.5,48.5 M603.5,29.5 L629.5,29.5 M616.5,48.5 L603.5,63.5 M616.5,48.5 L629.5,63.5 " fill="none" style="stroke:#181818;stroke-width:0.5;"/><text fill="#000000" font-family="sans-serif" font-size="14" lengthAdjust="spacing" textLength="61" x="583" y="328.6035">Customer</text><ellipse cx="616.5" cy="340.1797" fill="#E2E2F0" rx="8" ry="8" style="stroke:#181818;stroke-width:0.5;"/><path d="M616.5,348.1797 L616.5,375.1797 M603.5,356.1797 L629.5,356.1797 M616.5,375.1797 L603.5,390.1797 M616.5,375.1797 L629.5,390.1797 " fill="none" style="stroke:#181818;stroke-width:0.5;"/><polygon fill="#181818" points="104.5,110.9609,114.5,114.9609,104.5,118.9609,108.5,114.9609" style="stroke:#181818;stroke-width:1.0;"/><line style="stroke:#181818;stroke-width:1.0;" x1="45.5" x2="110.5" y1="114.9609" y2="114.9609"/><text fill="#000000" font-family="sans-serif" font-size="13" lengthAdjust="spacing" textLength="47" x="52.5" y="110.1045">To actor</text><polygon fill="#181818" points="167.5,141.3125,177.5,145.3125,167.5,149.3125,171.5,145.3125" style="stroke:#181818;stroke-width:1.0;"/><line style="stroke:#181818;stroke-width:1.0;" x1="45.5" x2="173.5" y1="145.3125" y2="145.3125"/><text fill="#000000" font-family="sans-serif" font-size="13" lengthAdjust="spacing" textLength="71" x="52.5" y="140.4561">To boundary</text><polygon fill="#181818" points="237,171.6641,247,175.6641,237,179.6641,241,175.6641" style="stroke:#181818;stroke-width:1.0;"/><line style="stroke:#181818;stroke-width:1.0;" x1="45.5" x2="243" y1="175.6641" y2="175.6641"/><text fill="#000000" font-family="sans-serif" font-size="13" lengthAdjust="spacing" textLength="57" x="52.5" y="170.8076">To control</text><polygon fill="#181818" points="293.5,202.0156,303.5,206.0156,293.5,210.0156,297.5,206.0156" style="stroke:#181818;stroke-width:1.0;"/><line style="stroke:#181818;stroke-width:1.0;" x1="45.5" x2="299.5" y1="206.0156" y2="206.0156"/><text fill="#000000" font-family="sans-serif" font-size="13" lengthAdjust="spacing" textLength="50" x="52.5" y="201.1592">To entity</text><polygon fill="#181818" points="357.5,232.3672,367.5,236.3672,357.5,240.3672,361.5,236.3672" style="stroke:#181818;stroke-width:1.0;"/><line style="stroke:#181818;stroke-width:1.0;" x1="45.5" x2="363.5" y1="236.3672" y2="236.3672"/><text fill="#000000" font-family="sans-serif" font-size="13" lengthAdjust="spacing" textLength="71" x="52.5" y="231.5107">To database</text><polygon fill="#181818" points="444.5,262.7188,454.5,266.7188,444.5,270.7188,448.5,266.7188" style="stroke:#181818;stroke-width:1.0;"/><line style="stroke:#181818;stroke-width:1.0;" x1="45.5" x2="450.5" y1="266.7188" y2="266.7188"/><text fill="#000000" font-family="sans-serif" font-size="13" lengthAdjust="spacing" textLength="80" x="52.5" y="261.8623">To collections</text><polygon fill="#181818" points="529.5,293.0703,539.5,297.0703,529.5,301.0703,533.5,297.0703" style="stroke:#181818;stroke-width:1.0;"/><line style="stroke:#181818;stroke-width:1.0;" x1="45.5" x2="535.5" y1="297.0703" y2="297.0703"/><text fill="#000000" font-family="sans-serif" font-size="13" lengthAdjust="spacing" textLength="53" x="52.5" y="292.2139">To queue</text><!--MD5=[436448629c23f3a8f650ca75eb90436d]
@startuml SequenceDiagram1
    participant Participant as Foo
    actor       Actor       as Foo1
    boundary    Boundary    as Foo2
    control     Control     as Foo3
    entity      Entity      as Foo4
    database    Database    as Foo5
    collections Collections as Foo6
    queue       Queue       as Foo7
    actor       Customer    as Foo8
    Foo -> Foo1 : To actor 
    Foo -> Foo2 : To boundary
    Foo -> Foo3 : To control
    Foo -> Foo4 : To entity
    Foo -> Foo5 : To database
    Foo -> Foo6 : To collections
    Foo -> Foo7: To queue
@enduml

PlantUML version 1.2022.7(Mon Aug 22 19:01:30 CEST 2022)
(GPL source distribution)
Java Runtime: OpenJDK Runtime Environment
JVM: OpenJDK 64-Bit Server VM
Default Encoding: UTF-8
Language: en
Country: US
--></g></svg>